# xmcd
#
# Track frame offsets:
#	150
#	16302
#	30050
#	50677
#	67637
#	88795
#	102350
#	118182
#	140270
#	158265
#	173095
#	189062
#	204485
#	223952
#	240480
#	257655
#
# Disc length: 3591 seconds
#
# Revision: 5
# Processed by: cddbd v1.5.1PL0 Copyright (c) Steve Scherf et al.
# Submitted via: audiograbber 1.83.01
#
DISCID=c60e0510
DTITLE=Various Artist - OLON CD 70
DYEAR=1900
DGENRE=
TTITLE0=Guus Meeuwis and Vagant - Per Spoor (Kedeng Kedeng)\\
TTITLE1=Pater Moeskroen - Laat Maar Waaien
TTITLE2=Andre Rieu - Carnaval De Venise
TTITLE3=Brothers In Crime - Forever
TTITLE4=One Two Trio - Juffrouw Toos
TTITLE5=Sugar Lee Hooper - Work Out
TTITLE6=2 Brothers On The 4th Floor ft Des'Ray and D Rock - Fairytales
TTITLE7=Mathilde Santing - Crescendo
TTITLE8=Van Dik Hout - Wat Weg Is Raak Je Nooit Meer Kwijt
TTITLE9=Nits - Bike In Head
TTITLE10=Oleta Adams - We Will Meet Again
TTITLE11=Jan Rietman - little Italy (The Big Apple)
TTITLE12=Vitalis - Lady Of The Night
TTITLE13=Voyage - Frozen
TTITLE14=Mr. Boogie Woogie and The Firesweep Bluesband - Boogie Woogie Pour Adeli
TTITLE14=ne (Chonson Pour Adeline)
TTITLE15=Dries Roelvink - Two Different Worlds
EXTD=
EXTT0=
EXTT1=
EXTT2=
EXTT3=
EXTT4=
EXTT5=
EXTT6=
EXTT7=
EXTT8=
EXTT9=
EXTT10=
EXTT11=
EXTT12=
EXTT13=
EXTT14=
EXTT15=
PLAYORDER=
